# xmcd
#
# Track frame offsets:
#	150
#	21279
#	47689
#	72696
#	92178
#	113185
#	133942
#	154091
#	171431
#	194618
#	215447
#	235397
#	256659
#	276846
#	301743
#
# Disc length: 4284 seconds
#
# Revision: 0
# Processed by: cddbd v1.4PL0 Copyright (c) Steve Scherf et al.
# Submitted via: dBpowerAMP V4.0
#
DISCID=e010ba0f
DTITLE=ワ①① - ワ①①ソ森
DYEAR=1900
DGENRE=
TTITLE0=長ゆ間
TTITLE1=素敵クス
TTITLE2=未來デ
TTITLE3=戀ズ戀ウサ
TTITLE4=逃ゎイスゆザ
TTITLE5=何時ろヘ
TTITLE6=三人ソ寫真
TTITLE7=run run run
TTITLE8=白ゆ
TTITLE9=僕ヘゾHero
TTITLE10=天氣ゎゆゆ朝
TTITLE11=長ゆ間(Original Karaoke)
TTITLE12=三人ソ寫真(Original Karaoke)
TTITLE13=未來デ(Original Karaoke)
TTITLE14=天氣ゎゆゆ朝 (Original Karaoke)
EXTD=
EXTT0=
EXTT1=
EXTT2=
EXTT3=
EXTT4=
EXTT5=
EXTT6=
EXTT7=
EXTT8=
EXTT9=
EXTT10=
EXTT11=
EXTT12=
EXTT13=
EXTT14=
PLAYORDER=
